<svg width="400" height="400" viewBox="0 0 400 400" fill="none" xmlns="http://www.w3.org/2000/svg">
<path d="M200.001 301.513C256.903 301.513 303.031 255.385 303.031 198.483C303.031 141.581 256.903 95.4531 200.001 95.4531C143.099 95.4531 96.9707 141.581 96.9707 198.483C96.9707 255.385 143.099 301.513 200.001 301.513Z" fill="#009EE5" stroke="#232323" stroke-width="6" stroke-miterlimit="10" stroke-linecap="round" stroke-linejoin="round"/>
<path d="M263.922 262.398C299.225 227.095 299.225 169.858 263.922 134.555C228.619 99.2517 171.381 99.2517 136.078 134.555C100.775 169.858 100.775 227.095 136.078 262.398C171.381 297.701 228.619 297.701 263.922 262.398Z" fill="white" stroke="#232323" stroke-width="6" stroke-miterlimit="10" stroke-linecap="round" stroke-linejoin="round"/>
<path d="M177.94 176.843L173.105 168.469L132.403 191.969L137.238 200.343L177.94 176.843Z" stroke="#232323" stroke-width="6" stroke-miterlimit="10" stroke-linecap="round" stroke-linejoin="round"/>
<path d="M165.722 197.105L169.73 188.305L126.956 168.823L122.948 177.624L165.722 197.105Z" fill="white" stroke="#232323" stroke-width="6" stroke-miterlimit="10" stroke-linecap="round" stroke-linejoin="round"/>
<path d="M190.691 198.145L184.924 190.383L147.197 218.414L152.964 226.176L190.691 198.145Z" stroke="#232323" stroke-width="6" stroke-miterlimit="10" stroke-linecap="round" stroke-linejoin="round"/>
<path d="M184.271 241.243L182.951 231.664L136.393 238.08L137.713 247.659L184.271 241.243Z" stroke="#232323" stroke-width="6" stroke-miterlimit="10" stroke-linecap="round" stroke-linejoin="round"/>
<path d="M306.191 93.8125L93.8105 306.193" stroke="#232323" stroke-width="6" stroke-miterlimit="10" stroke-linecap="round" stroke-linejoin="round"/>
<path d="M259.939 239.37C259.939 242.89 257.089 245.74 253.569 245.74C250.049 245.74 247.199 242.89 247.199 239.37C247.199 235.85 250.049 233 253.569 233C257.079 233 259.939 235.85 259.939 239.37Z" fill="#85DE76" stroke="#232323" stroke-width="6" stroke-miterlimit="10" stroke-linecap="round" stroke-linejoin="round"/>
<path d="M243.701 255.159C243.701 258.679 240.851 261.529 237.331 261.529C233.811 261.529 230.961 258.679 230.961 255.159C230.961 251.639 233.811 248.789 237.331 248.789C240.851 248.789 243.701 251.639 243.701 255.159Z" fill="#85DE76" stroke="#232323" stroke-width="6" stroke-miterlimit="10" stroke-linecap="round" stroke-linejoin="round"/>
<path d="M230.32 223.948C230.32 227.468 227.47 230.318 223.95 230.318C220.43 230.318 217.58 227.468 217.58 223.948C217.58 220.428 220.43 217.578 223.95 217.578C227.47 217.578 230.32 220.428 230.32 223.948Z" fill="#85DE76" stroke="#232323" stroke-width="6" stroke-miterlimit="10" stroke-linecap="round" stroke-linejoin="round"/>
<path d="M251.551 218.479C251.551 221.999 248.701 224.849 245.181 224.849C241.661 224.849 238.811 221.999 238.811 218.479C238.811 214.959 241.661 212.109 245.181 212.109C248.701 212.109 251.551 214.959 251.551 218.479Z" fill="#85DE76" stroke="#232323" stroke-width="6" stroke-miterlimit="10" stroke-linecap="round" stroke-linejoin="round"/>
<path d="M215.65 252.401C219.16 252.172 221.821 249.141 221.592 245.63C221.363 242.119 218.332 239.459 214.821 239.688C211.311 239.916 208.65 242.948 208.879 246.458C209.108 249.969 212.139 252.629 215.65 252.401Z" fill="#85DE76" stroke="#232323" stroke-width="6" stroke-miterlimit="10" stroke-linecap="round" stroke-linejoin="round"/>
<path d="M201.875 253.436C202.437 249.963 200.078 246.692 196.605 246.13C193.132 245.568 189.861 247.927 189.299 251.4C188.737 254.872 191.096 258.143 194.569 258.705C198.042 259.268 201.313 256.908 201.875 253.436Z" fill="#85DE76" stroke="#232323" stroke-width="6" stroke-miterlimit="10" stroke-linecap="round" stroke-linejoin="round"/>
<path d="M218.546 271.433C222.023 270.897 224.407 267.645 223.872 264.168C223.336 260.691 220.083 258.307 216.606 258.842C213.129 259.378 210.745 262.631 211.281 266.108C211.816 269.585 215.069 271.969 218.546 271.433Z" fill="#85DE76" stroke="#232323" stroke-width="6" stroke-miterlimit="10" stroke-linecap="round" stroke-linejoin="round"/>
<path d="M141.321 185.075L150.633 187.68L163.295 142.419L153.982 139.814L141.321 185.075Z" fill="white" stroke="#232323" stroke-width="6" stroke-miterlimit="10" stroke-linecap="round" stroke-linejoin="round"/>
<path d="M269.53 182.206C269.81 170.646 263.72 158.606 257.49 149.296C252.36 141.626 245.6 134.786 237.17 131.016C220.22 123.416 201.58 130.566 190.08 144.276C180.66 155.506 185.05 174.136 199.22 179.676C209.92 183.856 223.54 178.446 233.11 185.836C239.63 190.866 241.92 201.076 249.79 203.506C255.28 205.206 261.35 201.986 264.64 197.286C267.97 192.546 269.4 187.426 269.53 182.206Z" stroke="#232323" stroke-width="6" stroke-miterlimit="10" stroke-linecap="round" stroke-linejoin="round"/>
<path d="M226.183 157.216C226.824 150.226 221.676 144.041 214.686 143.401C207.696 142.76 201.51 147.908 200.87 154.898C200.23 161.888 205.377 168.074 212.368 168.714C219.358 169.354 225.543 164.206 226.183 157.216Z" fill="#85DE76" stroke="#232323" stroke-width="6" stroke-miterlimit="10" stroke-linecap="round" stroke-linejoin="round"/>
</svg>
