<svg width="400" height="400" viewBox="0 0 400 400" fill="none" xmlns="http://www.w3.org/2000/svg">
<path d="M218.15 183.983C218.15 183.983 269.58 183.653 269.58 183.983H218.15Z" fill="#009EE5"/>
<path d="M252.389 138.169C250.889 142.869 245.849 145.469 241.149 143.959C236.449 142.459 233.849 137.419 235.359 132.719" stroke="#232323" stroke-width="5.6874" stroke-miterlimit="10" stroke-linecap="round" stroke-linejoin="round"/>
<path d="M272.159 150.816C270.059 152.016 267.479 152.366 264.989 151.576C260.289 150.076 257.689 145.036 259.199 140.336" stroke="#232323" stroke-width="5.6874" stroke-miterlimit="10" stroke-linecap="round" stroke-linejoin="round"/>
<path d="M258.92 85.4922C255.57 93.2922 247.07 97.2922 239.09 95.2222" stroke="#232323" stroke-width="6" stroke-miterlimit="10" stroke-linecap="round" stroke-linejoin="round"/>
<path d="M262.721 76.7266C259.371 84.5266 250.871 88.5266 242.891 86.4566" stroke="#232323" stroke-width="6" stroke-miterlimit="10" stroke-linecap="round" stroke-linejoin="round"/>
<path d="M216.16 182.127C208.51 182.837 203.38 175.977 205.21 169.407L209.16 155.197L218.94 120.047C221.48 110.917 230.94 105.577 240.07 108.117L244.3 109.297C244.65 109.397 265.03 115.067 265.03 115.067" stroke="#232323" stroke-width="6" stroke-miterlimit="10" stroke-linecap="round" stroke-linejoin="round"/>
<path d="M274.389 163.781L268.219 185.941C267.929 186.981 267.789 188.061 267.789 189.141" stroke="#232323" stroke-width="6" stroke-miterlimit="10" stroke-linecap="round" stroke-linejoin="round"/>
<path d="M280.41 61.4062L271.24 64.1563L265.16 70.6863L265.25 74.4763L276.18 76.6262L286.61 76.8362L291.86 74.6063L294.4 71.2163L295.39 67.6463L288.4 62.4863L280.41 61.4062Z" fill="#85DE76"/>
<path d="M290.61 98.319C287.01 107.019 277.03 111.149 268.34 107.539C264.16 105.809 260.84 102.489 259.12 98.309C257.39 94.129 257.39 89.439 259.12 85.259L264.96 71.159C268.56 62.459 278.54 58.329 287.24 61.939C295.94 65.539 300.07 75.519 296.46 84.209L290.61 98.319Z" stroke="#232323" stroke-width="6" stroke-miterlimit="10" stroke-linecap="round" stroke-linejoin="round"/>
<path d="M296.45 71.1719C296.45 71.1719 291.44 80.7619 263.75 74.0619" stroke="#232323" stroke-width="6" stroke-miterlimit="10" stroke-linecap="round" stroke-linejoin="round"/>
<path d="M283.449 131.373C290.279 128.053 295.479 122.313 298.119 115.153C300.829 107.803 300.509 99.8328 297.229 92.7228C295.329 88.6128 296.429 83.8928 299.619 81.0028C300.359 80.3328 301.209 79.7628 302.159 79.3228C307.219 76.9828 313.219 79.2028 315.549 84.2528C321.089 96.2628 321.619 109.713 317.049 122.123C312.899 133.383 304.549 142.473 293.879 148.123" stroke="#232323" stroke-width="6" stroke-miterlimit="10" stroke-linecap="round" stroke-linejoin="round"/>
<path d="M320.131 256.956V239.836C286.151 239.836 288.331 205.266 288.331 205.266L320.161 205.186V159.656H334.871" stroke="#231F20" stroke-width="6" stroke-miterlimit="10" stroke-linecap="round" stroke-linejoin="round"/>
<path d="M277.321 106.017C276.321 108.067 273.841 108.927 271.781 107.927C269.731 106.927 268.871 104.447 269.881 102.397L271.611 98.8368C272.611 96.7768 275.091 95.9268 277.141 96.9268C279.201 97.9268 280.051 100.407 279.041 102.457L277.321 106.017Z" stroke="#232323" stroke-width="5" stroke-miterlimit="10" stroke-linecap="round" stroke-linejoin="round"/>
<path d="M272.311 122.961C267.641 130.541 271.221 141.481 279.471 144.841C287.721 148.191 291.301 159.131 286.631 166.711" stroke="#232323" stroke-width="6" stroke-miterlimit="10" stroke-linecap="round" stroke-linejoin="round"/>
<path d="M286.632 166.711C282.062 174.351 285.782 185.241 294.082 188.491" stroke="#232323" stroke-width="6" stroke-miterlimit="10" stroke-linecap="round" stroke-linejoin="round"/>
<path d="M212.449 143.383L231.839 148.543" stroke="#232323" stroke-width="6" stroke-miterlimit="10" stroke-linecap="round" stroke-linejoin="round"/>
<path d="M297.75 118.172L313.78 129.152" stroke="#232323" stroke-width="6" stroke-miterlimit="10" stroke-linecap="round" stroke-linejoin="round"/>
<path d="M214.91 186.91L225.37 146.82" stroke="#232323" stroke-width="6" stroke-miterlimit="10" stroke-linecap="round" stroke-linejoin="round"/>
<path d="M141.45 214.102L130.89 217.552L124.02 225.312L124.23 229.702L136.97 231.892L149.08 231.822L155.11 229.092L157.96 225.082L159.01 220.922L150.74 215.132L141.45 214.102Z" fill="#85DE76"/>
<path d="M117.41 242.394L123.78 225.874C127.71 215.674 139.16 210.604 149.36 214.534C159.55 218.464 164.63 229.914 160.7 240.114L154.33 256.634C150.4 266.834 138.95 271.904 128.75 267.974C123.71 266.034 119.92 262.244 117.85 257.684" stroke="#232323" stroke-width="6" stroke-miterlimit="10" stroke-linecap="round" stroke-linejoin="round"/>
<path d="M160.33 224.969C160.33 224.969 154.79 236.249 122.48 229.259" stroke="#232323" stroke-width="6" stroke-miterlimit="10" stroke-linecap="round" stroke-linejoin="round"/>
<path d="M87.4099 316.562L131.38 282.512C136.46 278.582 137.38 271.282 133.45 266.202C129.52 261.122 122.22 260.202 117.14 264.132L73.1699 298.182L87.4099 316.562Z" fill="white"/>
<path d="M112.34 267.852L68.3697 301.902C63.2897 305.832 62.3697 313.132 66.2997 318.212C70.2297 323.292 77.5297 324.212 82.6097 320.282L126.58 286.232L112.34 267.852Z" fill="#009EE5"/>
<path d="M82.6008 320.291C77.5208 324.221 70.2208 323.291 66.2908 318.221C62.3608 313.151 63.2908 305.851 68.3608 301.921L116.341 264.761C121.421 260.831 128.721 261.761 132.651 266.831C136.581 271.901 135.651 279.201 130.581 283.131L82.6008 320.291Z" stroke="#232323" stroke-width="6" stroke-miterlimit="10" stroke-linecap="round" stroke-linejoin="round"/>
<path d="M179.99 313.744L153.91 264.624C150.9 258.954 143.86 256.794 138.19 259.804C132.52 262.814 130.36 269.854 133.37 275.524L159.45 324.644L179.99 313.744Z" fill="white"/>
<path d="M136.23 280.892L162.31 330.012C165.32 335.682 172.36 337.842 178.03 334.832C183.7 331.822 185.86 324.782 182.85 319.112L156.77 269.992L136.23 280.892Z" fill="#85DE76"/>
<path d="M182.841 319.114C185.851 324.784 183.691 331.824 178.021 334.834C172.351 337.844 165.311 335.684 162.301 330.014L133.841 276.414C130.831 270.744 132.991 263.704 138.661 260.694C144.331 257.684 151.371 259.844 154.381 265.514L182.841 319.114Z" stroke="#232323" stroke-width="6" stroke-miterlimit="10" stroke-linecap="round" stroke-linejoin="round"/>
<path d="M93.9297 254.739C102.98 256.999 112.64 252.569 116.68 243.779L118.14 240.539" stroke="#232323" stroke-width="6" stroke-miterlimit="10" stroke-linecap="round" stroke-linejoin="round"/>
<path d="M120.521 234.328C117.321 241.608 110.271 245.998 102.811 246.158" stroke="#232323" stroke-width="6" stroke-miterlimit="10" stroke-linecap="round" stroke-linejoin="round"/>
<path d="M120.58 302.577C126.46 301.807 131.66 305.527 131.66 311.087C131.66 315.037 129.71 318.367 126.34 319.427" stroke="#232323" stroke-width="6" stroke-miterlimit="10" stroke-linecap="round" stroke-linejoin="round"/>
<path d="M153.329 315.852C152.429 317.562 150.989 318.852 149.119 319.442" stroke="#232323" stroke-width="6" stroke-miterlimit="10" stroke-linecap="round" stroke-linejoin="round"/>
<path d="M143.35 302.583C144.82 302.393 146.25 302.483 147.56 302.803" stroke="#232323" stroke-width="6" stroke-miterlimit="10" stroke-linecap="round" stroke-linejoin="round"/>
<path d="M130.45 263.048C127.79 261.228 127.45 257.088 129.69 253.808C131.94 250.528 135.91 249.358 138.58 251.178C140.58 252.548 141.27 255.218 140.54 257.848" stroke="#231F20" stroke-width="6" stroke-miterlimit="10" stroke-linecap="round" stroke-linejoin="round"/>
<path d="M164.539 260.953C164.539 262.333 163.419 263.453 162.039 263.453C160.659 263.453 159.539 262.333 159.539 260.953C159.539 259.573 160.659 258.453 162.039 258.453C163.419 258.443 164.539 259.563 164.539 260.953Z" fill="#231F20"/>
<path d="M134.17 292.524C134.17 293.904 133.05 295.024 131.67 295.024C130.29 295.024 129.17 293.904 129.17 292.524C129.17 291.144 130.29 290.024 131.67 290.024C133.05 290.014 134.17 291.134 134.17 292.524Z" fill="#231F20"/>
<path d="M93.9297 266.797C93.9297 268.177 92.8097 269.297 91.4297 269.297C90.0497 269.297 88.9297 268.177 88.9297 266.797C88.9297 265.417 90.0497 264.297 91.4297 264.297C92.8097 264.287 93.9297 265.417 93.9297 266.797Z" fill="#231F20"/>
<path d="M164.539 255.328C165.92 255.328 167.039 254.209 167.039 252.828C167.039 251.447 165.92 250.328 164.539 250.328C163.158 250.328 162.039 251.447 162.039 252.828C162.039 254.209 163.158 255.328 164.539 255.328Z" fill="#231F20"/>
<path d="M184.99 262.312C184.99 263.693 183.87 264.812 182.49 264.812C181.11 264.812 179.99 263.693 179.99 262.312C179.99 260.933 181.11 259.812 182.49 259.812C183.87 259.812 184.99 260.933 184.99 262.312Z" fill="#231F20"/>
<path d="M96.6406 95.9688L303.091 302.419" stroke="#232323" stroke-width="6" stroke-miterlimit="10" stroke-linecap="round" stroke-linejoin="round"/>
<path d="M196.891 327.117H255.851" stroke="#232323" stroke-width="6" stroke-miterlimit="10" stroke-linecap="round" stroke-linejoin="round"/>
<path d="M243.519 336.217H209.009L202.029 327.117H250.229L243.519 336.217Z" stroke="#232323" stroke-width="6" stroke-miterlimit="10" stroke-linecap="round" stroke-linejoin="round"/>
<path d="M202.029 315.797H224.449" stroke="#232323" stroke-width="6" stroke-miterlimit="10" stroke-linecap="round" stroke-linejoin="round"/>
<path d="M202.029 306.18H224.449" stroke="#009EE5" stroke-width="6" stroke-miterlimit="10" stroke-linecap="round" stroke-linejoin="round"/>
<path d="M232.199 315.797H254.619" stroke="#009EE5" stroke-width="6" stroke-miterlimit="10" stroke-linecap="round" stroke-linejoin="round"/>
<path d="M232.199 306.18H254.619" stroke="#232323" stroke-width="6" stroke-miterlimit="10" stroke-linecap="round" stroke-linejoin="round"/>
<path d="M202.029 296.562H224.449" stroke="#232323" stroke-width="6" stroke-miterlimit="10" stroke-linecap="round" stroke-linejoin="round"/>
<path d="M202.029 286.938H224.449" stroke="#009EE5" stroke-width="6" stroke-miterlimit="10" stroke-linecap="round" stroke-linejoin="round"/>
<path d="M202.029 277.32H224.449" stroke="#232323" stroke-width="6" stroke-miterlimit="10" stroke-linecap="round" stroke-linejoin="round"/>
<path d="M116.263 187.546C119.634 173.271 110.794 158.965 96.5181 155.595C82.2425 152.224 67.9372 161.064 64.5664 175.339C61.1955 189.615 70.0355 203.92 84.3111 207.291C98.5866 210.662 112.892 201.822 116.263 187.546Z" stroke="#232323" stroke-width="6" stroke-miterlimit="10" stroke-linecap="round" stroke-linejoin="round"/>
<path d="M83.2207 166.242L90.4207 181.432" stroke="#232323" stroke-width="6" stroke-miterlimit="10" stroke-linecap="round" stroke-linejoin="round"/>
<path d="M102.81 190.87L90.4199 181.43" stroke="#232323" stroke-width="6" stroke-miterlimit="10" stroke-linecap="round" stroke-linejoin="round"/>
</svg>
