<svg width="400" height="400" viewBox="0 0 400 400" fill="none" xmlns="http://www.w3.org/2000/svg">
<path d="M303.021 303.032V169.242H96.9707V303.032" stroke="#1E1E1E" stroke-width="6" stroke-miterlimit="10" stroke-linecap="round" stroke-linejoin="round"/>
<path d="M155.199 200H122.699V242.62H155.199V200Z" fill="#009EE5" stroke="#1E1E1E" stroke-width="6" stroke-miterlimit="10" stroke-linecap="round" stroke-linejoin="round"/>
<path d="M216.699 200H184.199V242.62H216.699V200Z" fill="#85DE76" stroke="#1E1E1E" stroke-width="6" stroke-miterlimit="10" stroke-linecap="round" stroke-linejoin="round"/>
<path d="M278.199 200H245.699V242.62H278.199V200Z" fill="#009EE5" stroke="#1E1E1E" stroke-width="6" stroke-miterlimit="10" stroke-linecap="round" stroke-linejoin="round"/>
<path d="M278.199 270.531H245.699V303.031H278.199V270.531Z" fill="#85DE76" stroke="#1E1E1E" stroke-width="6" stroke-miterlimit="10" stroke-linecap="round" stroke-linejoin="round"/>
<path d="M216.699 270.531H184.199V303.031H216.699V270.531Z" fill="#009EE5" stroke="#1E1E1E" stroke-width="6" stroke-miterlimit="10" stroke-linecap="round" stroke-linejoin="round"/>
<path d="M155.199 270.531H122.699V303.031H155.199V270.531Z" fill="white" stroke="#1E1E1E" stroke-width="6" stroke-miterlimit="10" stroke-linecap="round" stroke-linejoin="round"/>
<path d="M240.969 137.947C240.969 160.577 222.629 178.917 199.999 178.917C177.369 178.917 159.029 160.577 159.029 137.947C159.029 115.317 177.379 96.9766 199.999 96.9766C222.629 96.9666 240.969 115.317 240.969 137.947Z" fill="white" stroke="#1E1E1E" stroke-width="6" stroke-miterlimit="10" stroke-linecap="round" stroke-linejoin="round"/>
<path d="M224.559 131.351H206.589V113.391H193.399V131.351H175.439V144.541H193.399V162.511H206.589V144.541H224.559V131.351Z" fill="#009EE5" stroke="#1E1E1E" stroke-width="6" stroke-miterlimit="10" stroke-linecap="round" stroke-linejoin="round"/>
<path d="M336.06 74.5859H273.58V128.366H336.06V74.5859Z" stroke="#232323" stroke-width="6" stroke-miterlimit="10" stroke-linecap="round" stroke-linejoin="round"/>
<path d="M287.949 74.5887V63.9688" stroke="#232323" stroke-width="6" stroke-miterlimit="10" stroke-linecap="round" stroke-linejoin="round"/>
<path d="M318.568 74.5887V63.9688" stroke="#232323" stroke-width="6" stroke-miterlimit="10" stroke-linecap="round" stroke-linejoin="round"/>
<path d="M291.43 90.2909C291.43 92.4009 289.72 94.1209 287.6 94.1209C285.49 94.1209 283.77 92.4109 283.77 90.2909C283.77 88.1809 285.48 86.4609 287.6 86.4609C289.71 86.4609 291.43 88.1809 291.43 90.2909Z" fill="#009EE5"/>
<path d="M302.91 90.2909C302.91 92.4009 301.2 94.1209 299.08 94.1209C296.97 94.1209 295.25 92.4109 295.25 90.2909C295.25 88.1809 296.96 86.4609 299.08 86.4609C301.19 86.4609 302.91 88.1809 302.91 90.2909Z" fill="#009EE5"/>
<path d="M314.39 90.2909C314.39 92.4009 312.68 94.1209 310.56 94.1209C308.45 94.1209 306.73 92.4109 306.73 90.2909C306.73 88.1809 308.44 86.4609 310.56 86.4609C312.67 86.4609 314.39 88.1809 314.39 90.2909Z" fill="#009EE5"/>
<path d="M325.871 90.2909C325.871 92.4009 324.161 94.1209 322.041 94.1209C319.931 94.1209 318.211 92.4109 318.211 90.2909C318.211 88.1809 319.921 86.4609 322.041 86.4609C324.151 86.4609 325.871 88.1809 325.871 90.2909Z" fill="#009EE5"/>
<path d="M291.43 102.705C291.43 104.815 289.72 106.535 287.6 106.535C285.49 106.535 283.77 104.825 283.77 102.705C283.77 100.595 285.48 98.875 287.6 98.875C289.71 98.885 291.43 100.595 291.43 102.705Z" fill="#009EE5"/>
<path d="M302.91 102.705C302.91 104.815 301.2 106.535 299.08 106.535C296.97 106.535 295.25 104.825 295.25 102.705C295.25 100.595 296.96 98.875 299.08 98.875C301.19 98.885 302.91 100.595 302.91 102.705Z" fill="#009EE5"/>
<path d="M314.39 102.705C314.39 104.815 312.68 106.535 310.56 106.535C308.45 106.535 306.73 104.825 306.73 102.705C306.73 100.595 308.44 98.875 310.56 98.875C312.67 98.885 314.39 100.595 314.39 102.705Z" fill="#009EE5"/>
<path d="M325.871 102.705C325.871 104.815 324.161 106.535 322.041 106.535C319.931 106.535 318.211 104.825 318.211 102.705C318.211 100.595 319.921 98.875 322.041 98.875C324.151 98.885 325.871 100.595 325.871 102.705Z" fill="#009EE5"/>
<path d="M291.43 114.26C291.43 116.37 289.72 118.09 287.6 118.09C285.49 118.09 283.77 116.38 283.77 114.26C283.77 112.15 285.48 110.43 287.6 110.43C289.71 110.44 291.43 112.15 291.43 114.26Z" fill="#232323"/>
<path d="M302.91 114.26C302.91 116.37 301.2 118.09 299.08 118.09C296.97 118.09 295.25 116.38 295.25 114.26C295.25 112.15 296.96 110.43 299.08 110.43C301.19 110.44 302.91 112.15 302.91 114.26Z" fill="#232323"/>
</svg>
