<svg width="400" height="400" viewBox="0 0 400 400" fill="none" xmlns="http://www.w3.org/2000/svg">
<path d="M320.691 100.83C320.691 112.65 311.111 122.23 299.291 122.23C287.471 122.23 277.881 112.64 277.881 100.83C277.881 89.0097 287.461 79.4297 299.291 79.4297C311.111 79.4197 320.691 89.0097 320.691 100.83Z" fill="white" stroke="#232323" stroke-width="6" stroke-miterlimit="10" stroke-linecap="round" stroke-linejoin="round"/>
<path d="M303.021 303.032V169.242H96.9707V303.032" stroke="#1E1E1E" stroke-width="6" stroke-miterlimit="10" stroke-linecap="round" stroke-linejoin="round"/>
<path d="M155.199 200H122.699V242.62H155.199V200Z" fill="#009EE5" stroke="#1E1E1E" stroke-width="6" stroke-miterlimit="10" stroke-linecap="round" stroke-linejoin="round"/>
<path d="M216.699 200H184.199V242.62H216.699V200Z" fill="#85DE76" stroke="#1E1E1E" stroke-width="6" stroke-miterlimit="10" stroke-linecap="round" stroke-linejoin="round"/>
<path d="M278.199 200H245.699V242.62H278.199V200Z" fill="#009EE5" stroke="#1E1E1E" stroke-width="6" stroke-miterlimit="10" stroke-linecap="round" stroke-linejoin="round"/>
<path d="M278.199 270.531H245.699V303.031H278.199V270.531Z" fill="#85DE76" stroke="#1E1E1E" stroke-width="6" stroke-miterlimit="10" stroke-linecap="round" stroke-linejoin="round"/>
<path d="M216.699 270.531H184.199V303.031H216.699V270.531Z" fill="#009EE5" stroke="#1E1E1E" stroke-width="6" stroke-miterlimit="10" stroke-linecap="round" stroke-linejoin="round"/>
<path d="M155.199 270.531H122.699V303.031H155.199V270.531Z" fill="white" stroke="#1E1E1E" stroke-width="6" stroke-miterlimit="10" stroke-linecap="round" stroke-linejoin="round"/>
<path d="M240.969 137.947C240.969 160.577 222.629 178.917 199.999 178.917C177.369 178.917 159.029 160.577 159.029 137.947C159.029 115.317 177.379 96.9766 199.999 96.9766C222.629 96.9666 240.969 115.317 240.969 137.947Z" fill="white" stroke="#1E1E1E" stroke-width="6" stroke-miterlimit="10" stroke-linecap="round" stroke-linejoin="round"/>
<path d="M224.559 131.351H206.589V113.391H193.399V131.351H175.439V144.541H193.399V162.511H206.589V144.541H224.559V131.351Z" fill="#009EE5" stroke="#1E1E1E" stroke-width="6" stroke-miterlimit="10" stroke-linecap="round" stroke-linejoin="round"/>
<path d="M299.41 63.7109V70.1509" stroke="#85DE76" stroke-width="6" stroke-miterlimit="10" stroke-linecap="round" stroke-linejoin="round"/>
<path d="M280.83 68.6172L284.06 74.1972" stroke="#232323" stroke-width="6" stroke-miterlimit="10" stroke-linecap="round" stroke-linejoin="round"/>
<path d="M267.199 82.1562L272.779 85.3762" stroke="#85DE76" stroke-width="6" stroke-miterlimit="10" stroke-linecap="round" stroke-linejoin="round"/>
<path d="M262.17 100.703H268.61" stroke="#232323" stroke-width="6" stroke-miterlimit="10" stroke-linecap="round" stroke-linejoin="round"/>
<path d="M267.08 119.283L272.66 116.062" stroke="#85DE76" stroke-width="6" stroke-miterlimit="10" stroke-linecap="round" stroke-linejoin="round"/>
<path d="M280.619 132.908L283.839 127.328" stroke="#232323" stroke-width="6" stroke-miterlimit="10" stroke-linecap="round" stroke-linejoin="round"/>
<path d="M299.16 137.95V131.5" stroke="#85DE76" stroke-width="6" stroke-miterlimit="10" stroke-linecap="round" stroke-linejoin="round"/>
<path d="M317.74 133.041L314.52 127.461" stroke="#232323" stroke-width="6" stroke-miterlimit="10" stroke-linecap="round" stroke-linejoin="round"/>
<path d="M331.369 119.503L325.789 116.273" stroke="#85DE76" stroke-width="6" stroke-miterlimit="10" stroke-linecap="round" stroke-linejoin="round"/>
<path d="M336.411 100.953H329.961" stroke="#232323" stroke-width="6" stroke-miterlimit="10" stroke-linecap="round" stroke-linejoin="round"/>
<path d="M331.5 82.3828L325.92 85.6028" stroke="#85DE76" stroke-width="6" stroke-miterlimit="10" stroke-linecap="round" stroke-linejoin="round"/>
<path d="M317.95 68.7422L314.73 74.3222" stroke="#232323" stroke-width="6" stroke-miterlimit="10" stroke-linecap="round" stroke-linejoin="round"/>
</svg>
