<svg width="400" height="400" viewBox="0 0 400 400" fill="none" xmlns="http://www.w3.org/2000/svg">
<path d="M151.09 320.391H129.66V336.071H151.09V320.391Z" fill="#85DE76"/>
<path d="M151.1 298.461C138.99 298.461 129.17 308.281 129.17 320.391H151.1V298.461Z" fill="#85DE76"/>
<path d="M246.082 336.07H267.512V320.39H246.082V336.07Z" fill="#009EE5"/>
<path d="M246.08 298.461C258.19 298.461 268.01 308.281 268.01 320.391H246.08V298.461Z" fill="#009EE5"/>
<path d="M255.041 274.801C266.269 274.801 275.371 265.699 275.371 254.471C275.371 243.243 266.269 234.141 255.041 234.141C243.813 234.141 234.711 243.243 234.711 254.471C234.711 265.699 243.813 274.801 255.041 274.801Z" fill="#009EE5" stroke="#232323" stroke-width="6" stroke-miterlimit="10" stroke-linecap="round" stroke-linejoin="round"/>
<path d="M337.179 326.637L299.679 255.997C295.349 247.847 285.229 244.747 277.079 249.067C268.929 253.397 265.829 263.517 270.159 271.667L307.659 342.307L337.179 326.637Z" fill="white"/>
<path d="M278.551 287.519L307.461 272.719L334.431 322.749V336.289L302.681 336.719L278.551 287.519Z" fill="#85DE76"/>
<path d="M255.04 260.69C258.476 260.69 261.26 257.905 261.26 254.47C261.26 251.035 258.476 248.25 255.04 248.25C251.605 248.25 248.82 251.035 248.82 254.47C248.82 257.905 251.605 260.69 255.04 260.69Z" fill="white" stroke="#232323" stroke-width="6" stroke-miterlimit="10" stroke-linecap="round" stroke-linejoin="round"/>
<path d="M153.49 198.82C153.44 173.14 174.33 152.17 200.06 152.07H200.23C211.81 152.07 222.92 156.34 231.49 164.1L233.19 165.64L232.43 167.81C231.17 171.4 227.39 178.55 216.33 186.11C202.95 195.24 183.17 202.14 157.54 206.61L153.5 207.31L153.49 198.82Z" fill="#85DE76"/>
<path d="M176.859 281.38C168.229 276.47 161.299 268.91 157.189 259.82" stroke="#232323" stroke-width="6" stroke-miterlimit="10" stroke-linecap="round" stroke-linejoin="round"/>
<path d="M238.58 266.383C234.29 272.343 228.72 277.193 222.74 280.733" stroke="#232323" stroke-width="6" stroke-miterlimit="10" stroke-linecap="round" stroke-linejoin="round"/>
<path d="M153.079 226.753L153.029 198.313C152.979 172.753 173.639 151.973 199.199 151.883H200.309C225.899 151.793 246.719 172.463 246.819 198.053L246.959 235.283" stroke="#232323" stroke-width="6" stroke-miterlimit="10" stroke-linecap="round" stroke-linejoin="round"/>
<path d="M232.98 165.469C232.98 165.469 230.45 195.119 153.15 207.499" stroke="#232323" stroke-width="6" stroke-miterlimit="10" stroke-linecap="round" stroke-linejoin="round"/>
<path d="M153.02 226.75C153.07 242.14 143.06 255.21 129.16 259.72" stroke="#232323" stroke-width="6" stroke-miterlimit="10" stroke-linecap="round" stroke-linejoin="round"/>
<path d="M153.019 207.312C153.069 221.172 144.949 233.152 133.189 238.682" stroke="#232323" stroke-width="6" stroke-miterlimit="10" stroke-linecap="round" stroke-linejoin="round"/>
<path d="M303.989 336.72L270.139 272.97C265.809 264.82 268.909 254.7 277.069 250.37C285.219 246.04 295.339 249.14 299.669 257.3L334.429 322.77" stroke="#232323" stroke-width="6" stroke-miterlimit="10" stroke-linecap="round" stroke-linejoin="round"/>
<path d="M190.289 254.472C192.089 252.242 195.459 250.742 199.309 250.742C203.159 250.742 206.529 252.242 208.329 254.472" stroke="#232323" stroke-width="6" stroke-miterlimit="10" stroke-linecap="round" stroke-linejoin="round"/>
<path d="M238.58 118.703C238.58 122.293 235.67 125.213 232.07 125.213C228.48 125.213 225.57 122.303 225.57 118.703C225.57 115.113 228.48 112.203 232.07 112.203C235.66 112.203 238.58 115.113 238.58 118.703Z" fill="white" stroke="#232323" stroke-width="6" stroke-miterlimit="10" stroke-linecap="round" stroke-linejoin="round"/>
<path d="M225.5 139.693C225.5 141.993 223.63 143.863 221.33 143.863C219.03 143.863 217.16 141.993 217.16 139.693C217.16 137.393 219.03 135.523 221.33 135.523C223.64 135.523 225.5 137.393 225.5 139.693Z" fill="white" stroke="#232323" stroke-width="6" stroke-miterlimit="10" stroke-linecap="round" stroke-linejoin="round"/>
<path d="M248.381 103.112C248.381 91.8816 257.491 82.7816 268.721 82.7816C270.271 82.7816 271.791 82.9616 273.251 83.2916C273.061 82.2816 272.951 81.2416 272.951 80.1716C272.951 70.8816 280.481 63.3516 289.771 63.3516C296.741 63.3516 302.731 67.6016 305.271 73.6516C307.161 73.0916 309.171 72.7916 311.241 72.7916C323.011 72.7916 332.551 82.3416 332.551 94.1016C332.551 99.0016 330.891 103.512 328.111 107.112C329.011 110.152 329.491 113.372 329.491 116.692C329.491 120.462 328.871 124.082 327.741 127.472C332.771 132.732 335.871 139.862 335.871 147.722C335.871 163.892 322.761 177.002 306.581 177.002C293.331 177.002 282.151 168.202 278.531 156.132C276.341 156.932 273.991 157.372 271.521 157.372C260.291 157.372 251.191 148.262 251.191 137.032C251.191 130.512 254.261 124.712 259.031 120.992C252.681 117.552 248.381 110.842 248.381 103.112Z" stroke="#232323" stroke-width="6" stroke-miterlimit="10" stroke-linecap="round" stroke-linejoin="round"/>
<path d="M306.581 177.009C322.761 177.009 335.871 163.899 335.871 147.729C335.871 139.869 332.771 132.739 327.741 127.479C328.871 124.089 329.491 120.469 329.491 116.699C329.491 113.369 329.011 110.159 328.111 107.119C330.891 103.519 332.551 99.0094 332.551 94.1094C332.551 82.3394 323.011 72.7994 311.241 72.7994C309.171 72.7994 307.161 73.0994 305.271 73.6594C302.731 67.6094 296.741 63.3594 289.771 63.3594C280.481 63.3594 272.951 70.8894 272.951 80.1794C272.951 81.2394 273.061 82.2894 273.251 83.2994C271.791 82.9694 270.271 82.7894 268.721 82.7894C257.491 82.7894 248.381 91.8894 248.381 103.119C248.381 110.849 252.691 117.559 259.031 120.999C254.261 124.719 251.191 130.519 251.191 137.039C251.191 148.269 260.291 157.379 271.521 157.379C273.991 157.379 276.341 156.939 278.531 156.139C282.151 168.199 293.331 177.009 306.581 177.009Z" stroke="#232323" stroke-width="6" stroke-miterlimit="10" stroke-linecap="round" stroke-linejoin="round"/>
<path d="M295.359 84.4297C308.179 84.4297 317.91 97.6197 311.73 111.17H278.989C272.809 97.6197 282.539 84.4297 295.359 84.4297Z" fill="#009EE5"/>
<path d="M308.879 122.508L304.739 133.858H286.219L286.009 133.938L281.939 122.768L282.649 122.508H308.879Z" fill="#85DE76"/>
<path d="M286.009 133.942L295.359 159.592L304.739 133.862L308.879 122.512L313.009 111.172H311.729H278.989H277.709L281.939 122.772L286.009 133.942Z" stroke="#232323" stroke-width="6" stroke-miterlimit="10" stroke-linecap="round" stroke-linejoin="round"/>
<path d="M278.989 111.17C272.809 97.6197 282.539 84.4297 295.359 84.4297C308.179 84.4297 317.91 97.6197 311.73 111.17" stroke="#232323" stroke-width="6" stroke-miterlimit="10" stroke-linecap="round" stroke-linejoin="round"/>
<path d="M282.65 122.508H308.88" stroke="#232323" stroke-width="6" stroke-miterlimit="10" stroke-linecap="round" stroke-linejoin="round"/>
<path d="M304.739 133.859H286.219" stroke="#232323" stroke-width="6" stroke-miterlimit="10" stroke-linecap="round" stroke-linejoin="round"/>
<path d="M119.77 167.958C123.365 167.958 126.28 165.043 126.28 161.447C126.28 157.852 123.365 154.938 119.77 154.938C116.174 154.938 113.26 157.852 113.26 161.447C113.26 165.043 116.174 167.958 119.77 167.958Z" fill="white" stroke="#232323" stroke-width="6" stroke-miterlimit="10" stroke-linecap="round" stroke-linejoin="round"/>
<path d="M140.77 168.023C143.07 168.023 144.94 169.893 144.94 172.193C144.94 174.493 143.07 176.363 140.77 176.363C138.47 176.363 136.6 174.493 136.6 172.193C136.6 169.893 138.46 168.023 140.77 168.023Z" fill="white" stroke="#232323" stroke-width="6" stroke-miterlimit="10" stroke-linecap="round" stroke-linejoin="round"/>
<path d="M104.18 145.138C92.9499 145.138 83.8499 136.028 83.8499 124.798C83.8499 123.248 84.0299 121.728 84.3599 120.268C83.3499 120.458 82.3099 120.568 81.2399 120.568C71.9499 120.568 64.4199 113.038 64.4199 103.748C64.4199 96.7784 68.6699 90.7884 74.7199 88.2484C74.1599 86.3584 73.8599 84.3484 73.8599 82.2784C73.8599 70.5084 83.4099 60.9684 95.1699 60.9684C100.07 60.9684 104.58 62.6284 108.18 65.4084C111.22 64.5084 114.44 64.0284 117.76 64.0284C121.53 64.0284 125.15 64.6484 128.54 65.7784C133.8 60.7484 140.93 57.6484 148.79 57.6484C164.96 57.6484 178.07 70.7584 178.07 86.9384C178.07 100.188 169.27 111.368 157.2 114.988C158 117.178 158.44 119.528 158.44 121.998C158.44 133.228 149.33 142.328 138.1 142.328C131.58 142.328 125.78 139.258 122.06 134.488C118.62 140.828 111.91 145.138 104.18 145.138Z" stroke="#232323" stroke-width="6" stroke-miterlimit="10" stroke-linecap="round" stroke-linejoin="round"/>
<path d="M178.08 86.9384C178.08 70.7584 164.97 57.6484 148.8 57.6484C140.94 57.6484 133.81 60.7484 128.55 65.7784C125.16 64.6484 121.54 64.0284 117.77 64.0284C114.44 64.0284 111.23 64.5084 108.19 65.4084C104.59 62.6284 100.08 60.9684 95.1797 60.9684C83.4097 60.9684 73.8697 70.5084 73.8697 82.2784C73.8697 84.3484 74.1697 86.3584 74.7297 88.2484C68.6797 90.7884 64.4297 96.7784 64.4297 103.748C64.4297 113.038 71.9597 120.568 81.2497 120.568C82.3097 120.568 83.3597 120.458 84.3697 120.268C84.0397 121.728 83.8597 123.248 83.8597 124.798C83.8597 136.028 92.9597 145.138 104.19 145.138C111.92 145.138 118.63 140.828 122.07 134.488C125.79 139.258 131.59 142.328 138.11 142.328C149.34 142.328 158.45 133.228 158.45 121.998C158.45 119.528 158.01 117.178 157.21 114.988C169.28 111.368 178.08 100.178 178.08 86.9384Z" stroke="#232323" stroke-width="6" stroke-miterlimit="10" stroke-linecap="round" stroke-linejoin="round"/>
<path d="M222.73 264.628C214.78 264.628 208.33 258.178 208.33 250.228C208.33 242.278 214.78 235.828 222.73 235.828" stroke="#232323" stroke-width="6" stroke-miterlimit="10" stroke-linecap="round" stroke-linejoin="round"/>
<path d="M175.891 235.828C183.841 235.828 190.291 242.278 190.291 250.228C190.291 258.178 183.841 264.628 175.891 264.628" stroke="#232323" stroke-width="6" stroke-miterlimit="10" stroke-linecap="round" stroke-linejoin="round"/>
<path d="M307.631 272.281L278.551 287.521" stroke="#232323" stroke-width="6" stroke-miterlimit="10" stroke-linecap="round" stroke-linejoin="round"/>
<path d="M168.751 295.187C167.341 293.717 166.471 291.727 166.471 289.527C166.471 285.017 170.121 281.367 174.631 281.367" stroke="#232323" stroke-width="6" stroke-miterlimit="10" stroke-linecap="round" stroke-linejoin="round"/>
<path d="M168.75 295.188C170.23 296.727 172.32 297.688 174.63 297.688H151.61C139.49 297.688 129.67 307.508 129.67 319.628V336.057" stroke="#232323" stroke-width="6" stroke-miterlimit="10" stroke-linecap="round" stroke-linejoin="round"/>
<path d="M228.61 295.187C230.02 293.717 230.89 291.727 230.89 289.527C230.89 285.017 227.24 281.367 222.73 281.367" stroke="#232323" stroke-width="6" stroke-miterlimit="10" stroke-linecap="round" stroke-linejoin="round"/>
<path d="M228.61 295.188C227.13 296.727 225.04 297.688 222.73 297.688H245.75C257.87 297.688 267.69 307.508 267.69 319.628V336.057" stroke="#232323" stroke-width="6" stroke-miterlimit="10" stroke-linecap="round" stroke-linejoin="round"/>
<path d="M138.41 76.5397L139.05 87.6497C127.14 84.0297 117.81 84.6397 111.37 89.4497C105.18 94.0697 101.67 102.73 102.51 111.95L102.3 112.37L91.8301 107.09C92.4001 89.3897 105.86 67.9797 138.41 76.5397Z" fill="#85DE76"/>
<path d="M132.92 110.692C134.28 112.762 133.7 115.562 131.63 116.912C129.56 118.272 126.77 117.702 125.41 115.622C124.05 113.552 124.63 110.762 126.7 109.402C128.77 108.042 131.56 108.612 132.92 110.692Z" fill="#85DE76"/>
<path d="M131.431 94.4658C132.781 96.5358 132.211 99.3258 130.141 100.686C128.071 102.046 125.271 101.466 123.911 99.3858C122.561 97.3158 123.131 94.5258 125.201 93.1658C127.281 91.8158 130.071 92.3958 131.431 94.4658Z" fill="#009EE5"/>
<path d="M138.41 76.5391L139.05 87.6491L141.57 132.019C141.55 132.029 141.54 132.039 141.52 132.059C141.5 132.069 141.48 132.079 141.47 132.089L102.3 112.359L91.8301 107.079" stroke="#232323" stroke-width="6" stroke-miterlimit="10" stroke-linecap="round" stroke-linejoin="round"/>
<path d="M115.189 107.7L117.039 102.68" stroke="#85DE76" stroke-width="6" stroke-miterlimit="10" stroke-linecap="round" stroke-linejoin="round"/>
<path d="M139.05 87.6461C127.14 84.0261 117.81 84.6361 111.37 89.4461C105.18 94.0661 101.67 102.726 102.51 111.946" stroke="#232323" stroke-width="6" stroke-miterlimit="10" stroke-linecap="round" stroke-linejoin="round"/>
<path d="M91.8301 107.09C92.4001 89.3897 105.86 67.9797 138.41 76.5397" stroke="#232323" stroke-width="6" stroke-miterlimit="10" stroke-linecap="round" stroke-linejoin="round"/>
</svg>
