<svg width="400" height="400" viewBox="0 0 400 400" fill="none" xmlns="http://www.w3.org/2000/svg">
<path d="M241.311 173.563C238.081 173.563 235.471 170.943 235.471 167.723C235.471 164.493 238.091 161.883 241.311 161.883C244.541 161.883 247.151 164.503 247.151 167.723C247.151 170.953 244.541 173.563 241.311 173.563Z" fill="white" stroke="#232323" stroke-width="6" stroke-miterlimit="10" stroke-linecap="round" stroke-linejoin="round"/>
<path d="M222.449 161.82C220.379 161.82 218.699 160.14 218.699 158.07C218.699 156 220.379 154.32 222.449 154.32C224.519 154.32 226.199 156 226.199 158.07C226.199 160.14 224.519 161.82 222.449 161.82Z" fill="white" stroke="#232323" stroke-width="6" stroke-miterlimit="10" stroke-linecap="round" stroke-linejoin="round"/>
<path d="M164.961 109.133C162.891 109.133 161.211 107.453 161.211 105.383C161.211 103.313 162.891 101.633 164.961 101.633C167.031 101.633 168.711 103.313 168.711 105.383C168.711 107.453 167.031 109.133 164.961 109.133Z" fill="white" stroke="#232323" stroke-width="6" stroke-miterlimit="10" stroke-linecap="round" stroke-linejoin="round"/>
<path d="M177.2 119.023L167.19 122.283L160.68 129.633L160.89 133.803L172.96 135.873L184.43 135.813L190.14 133.223L192.84 129.423L193.84 125.473L186.01 119.993L177.2 119.023Z" fill="#85DE76"/>
<path d="M202.26 107.562C206.75 111.273 210.35 116.003 212.78 121.483C214.38 125.103 215.4 128.872 215.83 132.702" stroke="#232323" stroke-width="6" stroke-miterlimit="10" stroke-linecap="round" stroke-linejoin="round"/>
<path d="M199.33 118.148C201.2 120.288 202.76 122.718 203.94 125.388C204.96 127.678 205.66 130.058 206.04 132.478" stroke="#232323" stroke-width="6" stroke-miterlimit="10" stroke-linecap="round" stroke-linejoin="round"/>
<path d="M154.42 145.816L160.46 130.156C164.19 120.496 175.04 115.686 184.7 119.406C194.36 123.136 199.17 133.986 195.45 143.646L189.41 159.306C185.68 168.966 174.83 173.776 165.17 170.056C160.39 168.216 156.8 164.626 154.84 160.306" stroke="#232323" stroke-width="6" stroke-miterlimit="10" stroke-linecap="round" stroke-linejoin="round"/>
<path d="M195.1 129.312C195.1 129.312 189.85 140.003 159.23 133.383" stroke="#232323" stroke-width="6" stroke-miterlimit="10" stroke-linecap="round" stroke-linejoin="round"/>
<path d="M125.99 216.108L167.65 183.838C172.46 180.118 173.34 173.198 169.61 168.388C165.89 163.578 158.97 162.698 154.16 166.428L112.5 198.698L125.99 216.108Z" fill="white"/>
<path d="M149.61 169.953L107.95 202.223C103.14 205.943 102.26 212.863 105.99 217.673C109.71 222.483 116.63 223.363 121.44 219.633L163.1 187.363L149.61 169.953Z" fill="#009EE5"/>
<path d="M84.3592 213.8C84.2992 212.15 84.3792 210.48 84.5892 208.81C85.4092 202.35 88.2092 196.46 92.5892 191.82" stroke="#232323" stroke-width="6" stroke-miterlimit="10" stroke-linecap="round" stroke-linejoin="round"/>
<path d="M94.0492 213.8C93.7792 208.91 95.2392 203.98 98.3192 200" stroke="#232323" stroke-width="6" stroke-miterlimit="10" stroke-linecap="round" stroke-linejoin="round"/>
<path d="M121.44 219.629C116.63 223.349 109.71 222.479 105.99 217.669C102.26 212.859 103.14 205.939 107.95 202.219L153.42 167.009C158.23 163.289 165.15 164.159 168.87 168.979C172.59 173.789 171.72 180.709 166.91 184.429L121.44 219.629Z" stroke="#232323" stroke-width="6" stroke-miterlimit="10" stroke-linecap="round" stroke-linejoin="round"/>
<path d="M233.9 238.86C234.63 237.38 235.24 235.82 235.72 234.21C237.6 227.97 237.44 221.45 235.32 215.43" stroke="#232323" stroke-width="6" stroke-miterlimit="10" stroke-linecap="round" stroke-linejoin="round"/>
<path d="M225.051 234.918C227.281 230.558 227.951 225.458 226.761 220.578" stroke="#232323" stroke-width="6" stroke-miterlimit="10" stroke-linecap="round" stroke-linejoin="round"/>
<path d="M213.719 213.431L189.009 166.891C186.159 161.521 179.489 159.471 174.119 162.331C168.749 165.181 166.699 171.851 169.559 177.221L194.269 223.761L213.719 213.431Z" fill="white"/>
<path d="M172.25 182.314L196.96 228.854C199.81 234.224 206.48 236.274 211.85 233.414C217.22 230.564 219.27 223.894 216.41 218.524L191.7 171.984L172.25 182.314Z" fill="#85DE76"/>
<path d="M216.42 218.52C219.27 223.89 217.23 230.56 211.86 233.41C206.49 236.26 199.82 234.22 196.97 228.85L170 178.06C167.15 172.69 169.19 166.02 174.56 163.17C179.93 160.32 186.6 162.36 189.45 167.73L216.42 218.52Z" stroke="#232323" stroke-width="6" stroke-miterlimit="10" stroke-linecap="round" stroke-linejoin="round"/>
<path d="M132.17 157.52C140.75 159.66 149.9 155.47 153.72 147.14L155.1 144.07" stroke="#232323" stroke-width="6" stroke-miterlimit="10" stroke-linecap="round" stroke-linejoin="round"/>
<path d="M157.37 138.188C154.34 145.088 147.66 149.247 140.59 149.397" stroke="#232323" stroke-width="6" stroke-miterlimit="10" stroke-linecap="round" stroke-linejoin="round"/>
<path d="M276.25 174.936C267.09 174.936 259.67 167.506 259.67 158.346C259.67 157.076 259.82 155.836 260.09 154.646C259.27 154.796 258.41 154.896 257.55 154.896C249.97 154.896 243.83 148.756 243.83 141.176C243.83 135.486 247.3 130.606 252.23 128.536C251.78 126.996 251.53 125.356 251.53 123.666C251.53 114.066 259.32 106.286 268.91 106.286C272.91 106.286 276.59 107.636 279.52 109.906C282 109.176 284.62 108.786 287.34 108.786C290.41 108.786 293.37 109.296 296.13 110.216C300.42 106.116 306.24 103.586 312.65 103.586C325.84 103.586 336.53 114.276 336.53 127.476C336.53 138.286 329.35 147.406 319.51 150.356C320.16 152.136 320.52 154.056 320.52 156.076C320.52 165.236 313.09 172.656 303.93 172.656C298.61 172.656 293.89 170.146 290.85 166.266C288.02 171.426 282.55 174.936 276.25 174.936Z" stroke="#232323" stroke-width="6" stroke-miterlimit="10" stroke-linecap="round" stroke-linejoin="round"/>
<path d="M336.511 127.468C336.511 114.268 325.821 103.578 312.631 103.578C306.221 103.578 300.401 106.108 296.111 110.208C293.341 109.288 290.391 108.778 287.321 108.778C284.611 108.778 281.991 109.168 279.501 109.898C276.561 107.628 272.881 106.278 268.891 106.278C259.291 106.278 251.511 114.058 251.511 123.658C251.511 125.348 251.761 126.988 252.211 128.528C247.281 130.608 243.811 135.488 243.811 141.168C243.811 148.748 249.951 154.888 257.531 154.888C258.401 154.888 259.251 154.798 260.071 154.638C259.801 155.828 259.651 157.068 259.651 158.338C259.651 167.498 267.071 174.928 276.231 174.928C282.531 174.928 288.001 171.418 290.821 166.248C293.861 170.138 298.581 172.638 303.901 172.638C313.061 172.638 320.491 165.218 320.491 156.058C320.491 154.048 320.131 152.128 319.481 150.338C329.341 147.398 336.511 138.278 336.511 127.468Z" stroke="#232323" stroke-width="6" stroke-miterlimit="10" stroke-linecap="round" stroke-linejoin="round"/>
<path d="M121.629 63.9375C130.419 63.9375 137.549 71.0675 137.549 79.8675C137.549 81.0875 137.409 82.2675 137.149 83.4175C137.939 83.2675 138.759 83.1775 139.589 83.1775C146.859 83.1775 152.759 89.0675 152.759 96.3475C152.759 101.807 149.429 106.488 144.699 108.478C145.139 109.958 145.369 111.528 145.369 113.158C145.369 122.368 137.899 129.837 128.679 129.837C124.839 129.837 121.309 128.538 118.489 126.368C116.109 127.068 113.589 127.447 110.989 127.447C108.039 127.447 105.209 126.958 102.549 126.078C98.4293 130.018 92.8493 132.447 86.6993 132.447C74.0393 132.447 63.7793 122.188 63.7793 109.517C63.7793 99.1475 70.6693 90.3875 80.1193 87.5575C79.4893 85.8475 79.1493 83.9975 79.1493 82.0675C79.1493 73.2775 86.2793 66.1475 95.0793 66.1475C100.179 66.1475 104.719 68.5475 107.629 72.2875C110.329 67.3075 115.579 63.9375 121.629 63.9375Z" fill="white" stroke="#232323" stroke-width="6" stroke-miterlimit="10" stroke-linecap="round" stroke-linejoin="round"/>
<path d="M63.7793 109.502C63.7793 122.172 74.0393 132.432 86.6993 132.432C92.8493 132.432 98.4393 130.002 102.549 126.062C105.209 126.952 108.039 127.432 110.989 127.432C113.589 127.432 116.109 127.052 118.489 126.352C121.309 128.532 124.839 129.822 128.679 129.822C137.889 129.822 145.369 122.352 145.369 113.142C145.369 111.522 145.129 109.952 144.699 108.462C149.439 106.472 152.759 101.782 152.759 96.3319C152.759 89.0619 146.869 83.1619 139.589 83.1619C138.759 83.1619 137.939 83.2519 137.149 83.4019C137.409 82.2619 137.549 81.0719 137.549 79.8519C137.549 71.0619 130.419 63.9219 121.629 63.9219C115.579 63.9219 110.329 67.2919 107.629 72.2619C104.719 68.5319 100.179 66.1219 95.0793 66.1219C86.2893 66.1219 79.1493 73.2519 79.1493 82.0419C79.1493 83.9719 79.4993 85.8219 80.1193 87.5319C70.6693 90.3719 63.7793 99.1319 63.7793 109.502Z" fill="white" stroke="#232323" stroke-width="6" stroke-miterlimit="10" stroke-linecap="round" stroke-linejoin="round"/>
<path d="M156.87 286.739C156.87 287.509 156.87 325.159 156.87 324.389C156.87 331.089 151.44 336.529 144.74 336.529C138.04 336.529 132.6 331.099 132.6 324.389V289.579V229.039" stroke="#232323" stroke-width="6" stroke-miterlimit="10" stroke-linecap="round" stroke-linejoin="round"/>
<path d="M191.419 276.438V314.388L191.469 324.378C191.469 331.078 186.039 336.517 179.339 336.517C172.629 336.517 167.199 331.088 167.199 324.378V306.577V286.728" stroke="#232323" stroke-width="6" stroke-miterlimit="10" stroke-linecap="round" stroke-linejoin="round"/>
<path d="M191.471 278.522V218.492" stroke="#232323" stroke-width="6" stroke-miterlimit="10" stroke-linecap="round" stroke-linejoin="round"/>
<path d="M190.35 286.742H144.74" stroke="#232323" stroke-width="6" stroke-miterlimit="10" stroke-linecap="round" stroke-linejoin="round"/>
<path d="M157.43 202.861C163 202.131 167.93 205.661 167.93 210.931C167.93 214.671 166.08 217.831 162.89 218.841" stroke="#232323" stroke-width="6" stroke-miterlimit="10" stroke-linecap="round" stroke-linejoin="round"/>
<path d="M188.461 215.43C187.601 217.05 186.251 218.27 184.471 218.83" stroke="#232323" stroke-width="6" stroke-miterlimit="10" stroke-linecap="round" stroke-linejoin="round"/>
<path d="M179 202.86C180.39 202.68 181.74 202.76 182.99 203.07" stroke="#232323" stroke-width="6" stroke-miterlimit="10" stroke-linecap="round" stroke-linejoin="round"/>
<path d="M111.65 86.0491C111.66 81.6491 108.08 78.0491 103.67 78.0391H103.64C101.65 78.0391 99.7502 78.7691 98.2802 80.0991L97.9902 80.3591L98.1202 80.7291C98.3402 81.3491 98.9802 82.5691 100.88 83.8691C103.17 85.4391 106.56 86.6191 110.96 87.3791L111.65 87.4991V86.0491Z" fill="#85DE76"/>
<path d="M103.631 101.257C107.991 101.277 111.581 97.8066 111.721 93.4766" stroke="#232323" stroke-width="5.2436" stroke-miterlimit="10" stroke-linecap="round" stroke-linejoin="round"/>
<path d="M111.721 93.4779L111.731 85.9679C111.741 81.5879 108.201 78.0279 103.821 78.0079H103.631C99.2409 77.9879 95.6709 81.5379 95.6609 85.9179L95.6309 93.1979C95.6109 98.1179 100.291 101.248 103.631 101.258" stroke="#232323" stroke-width="5.2436" stroke-miterlimit="10" stroke-linecap="round" stroke-linejoin="round"/>
<path d="M98.0312 80.3359C98.0312 80.3359 98.4613 85.4159 111.711 87.5359" stroke="#232323" stroke-width="5.2436" stroke-miterlimit="10" stroke-linecap="round" stroke-linejoin="round"/>
<path d="M135.33 100.643C135.34 96.2428 131.76 92.6428 127.35 92.6328H127.32C125.33 92.6328 123.43 93.3628 121.96 94.6928L121.67 94.9528L121.8 95.3228C122.02 95.9428 122.66 97.1628 124.56 98.4628C126.85 100.033 130.24 101.213 134.64 101.973L135.33 102.093V100.643Z" fill="#009EE5"/>
<path d="M127.311 115.842C131.671 115.862 135.261 112.392 135.401 108.062" stroke="#232323" stroke-width="5.2436" stroke-miterlimit="10" stroke-linecap="round" stroke-linejoin="round"/>
<path d="M135.401 108.064L135.411 100.554C135.421 96.1738 131.881 92.6138 127.501 92.5938H127.311C122.921 92.5738 119.351 96.1238 119.341 100.504L119.311 107.784C119.291 112.704 123.971 115.834 127.311 115.844" stroke="#232323" stroke-width="5.2436" stroke-miterlimit="10" stroke-linecap="round" stroke-linejoin="round"/>
<path d="M121.711 94.9219C121.711 94.9219 122.141 100.002 135.391 102.122" stroke="#232323" stroke-width="5.2436" stroke-miterlimit="10" stroke-linecap="round" stroke-linejoin="round"/>
<path d="M92.3084 107.494C92.3184 103.094 88.7384 99.4944 84.3284 99.4844H84.2984C82.3084 99.4844 80.4084 100.214 78.9384 101.544L78.6484 101.804L78.7784 102.174C78.9984 102.794 79.6384 104.014 81.5384 105.314C83.8284 106.884 87.2184 108.064 91.6184 108.824L92.3084 108.944V107.494Z" fill="#009EE5"/>
<path d="M84.2891 122.702C88.6491 122.722 92.2391 119.252 92.3791 114.922" stroke="#232323" stroke-width="5.2436" stroke-miterlimit="10" stroke-linecap="round" stroke-linejoin="round"/>
<path d="M92.3791 114.923L92.3891 107.413C92.3991 103.033 88.8591 99.4732 84.4791 99.4532H84.2891C79.8991 99.4332 76.3291 102.983 76.3191 107.363L76.2891 114.643C76.2691 119.563 80.9491 122.693 84.2891 122.703" stroke="#232323" stroke-width="5.2436" stroke-miterlimit="10" stroke-linecap="round" stroke-linejoin="round"/>
<path d="M78.6895 101.781C78.6895 101.781 79.1195 106.861 92.3695 108.981" stroke="#232323" stroke-width="5.2436" stroke-miterlimit="10" stroke-linecap="round" stroke-linejoin="round"/>
<path d="M290.029 148.863C294.994 148.863 299.019 144.838 299.019 139.873C299.019 134.908 294.994 130.883 290.029 130.883C285.064 130.883 281.039 134.908 281.039 139.873C281.039 144.838 285.064 148.863 290.029 148.863Z" fill="#231F20" stroke="#231F20" stroke-width="6" stroke-miterlimit="10" stroke-linecap="round" stroke-linejoin="round"/>
<path d="M283.111 134.141L276.051 141.291" stroke="#231F20" stroke-width="6" stroke-miterlimit="10" stroke-linecap="round" stroke-linejoin="round"/>
<path d="M296.939 134.148L304.009 141.288" stroke="#231F20" stroke-width="6" stroke-miterlimit="10" stroke-linecap="round" stroke-linejoin="round"/>
<path d="M285.779 149.57V156.82" stroke="#231F20" stroke-width="6" stroke-miterlimit="10" stroke-linecap="round" stroke-linejoin="round"/>
<path d="M294.211 149.57V156.82" stroke="#231F20" stroke-width="6" stroke-miterlimit="10" stroke-linecap="round" stroke-linejoin="round"/>
<path d="M292.059 121.607C292.059 122.747 291.139 123.667 289.999 123.667C288.859 123.667 287.939 122.747 287.939 121.607C287.939 120.467 288.859 119.547 289.999 119.547C291.129 119.547 292.059 120.467 292.059 121.607Z" fill="#231F20" stroke="#231F20" stroke-width="6" stroke-miterlimit="10" stroke-linecap="round" stroke-linejoin="round"/>
</svg>
