<svg width="400" height="400" viewBox="0 0 400 400" fill="none" xmlns="http://www.w3.org/2000/svg">
<path d="M303.021 303.032V169.242H96.9707V303.032" stroke="#1E1E1E" stroke-width="6" stroke-miterlimit="10" stroke-linecap="round" stroke-linejoin="round"/>
<path d="M155.199 200H122.699V242.62H155.199V200Z" fill="#009EE5" stroke="#1E1E1E" stroke-width="6" stroke-miterlimit="10" stroke-linecap="round" stroke-linejoin="round"/>
<path d="M216.699 200H184.199V242.62H216.699V200Z" fill="#85DE76" stroke="#1E1E1E" stroke-width="6" stroke-miterlimit="10" stroke-linecap="round" stroke-linejoin="round"/>
<path d="M278.199 200H245.699V242.62H278.199V200Z" fill="#009EE5" stroke="#1E1E1E" stroke-width="6" stroke-miterlimit="10" stroke-linecap="round" stroke-linejoin="round"/>
<path d="M278.199 270.531H245.699V303.031H278.199V270.531Z" fill="#85DE76" stroke="#1E1E1E" stroke-width="6" stroke-miterlimit="10" stroke-linecap="round" stroke-linejoin="round"/>
<path d="M216.699 270.531H184.199V303.031H216.699V270.531Z" fill="#009EE5" stroke="#1E1E1E" stroke-width="6" stroke-miterlimit="10" stroke-linecap="round" stroke-linejoin="round"/>
<path d="M155.199 270.531H122.699V303.031H155.199V270.531Z" fill="white" stroke="#1E1E1E" stroke-width="6" stroke-miterlimit="10" stroke-linecap="round" stroke-linejoin="round"/>
<path d="M240.969 137.947C240.969 160.577 222.629 178.917 199.999 178.917C177.369 178.917 159.029 160.577 159.029 137.947C159.029 115.317 177.379 96.9766 199.999 96.9766C222.629 96.9666 240.969 115.317 240.969 137.947Z" fill="white" stroke="#1E1E1E" stroke-width="6" stroke-miterlimit="10" stroke-linecap="round" stroke-linejoin="round"/>
<path d="M224.559 131.351H206.589V113.391H193.399V131.351H175.439V144.541H193.399V162.511H206.589V144.541H224.559V131.351Z" fill="#009EE5" stroke="#1E1E1E" stroke-width="6" stroke-miterlimit="10" stroke-linecap="round" stroke-linejoin="round"/>
</svg>
